<?xml version="1.0" encoding="UTF-8" standalone="no"?>
<!-- Creator: CorelDRAW X6 -->

<svg
   xmlns:dc="http://purl.org/dc/elements/1.1/"
   xmlns:cc="http://creativecommons.org/ns#"
   xmlns:rdf="http://www.w3.org/1999/02/22-rdf-syntax-ns#"
   xmlns:svg="http://www.w3.org/2000/svg"
   xmlns="http://www.w3.org/2000/svg"
   xmlns:sodipodi="http://sodipodi.sourceforge.net/DTD/sodipodi-0.dtd"
   xmlns:inkscape="http://www.inkscape.org/namespaces/inkscape"
   xml:space="preserve"
   width="871.45001"
   height="198.41"
   version="1.1"
   style="fill-rule:evenodd"
   viewBox="0 0 968277.83 220455.55"
   enable-background="new 0 0 576.08 131.173"
   id="svg3098"
   inkscape:version="0.48.4 r9939"
   sodipodi:docname="Unicef logo.svg"><metadata
   id="metadata3209"><rdf:RDF><cc:Work
       rdf:about=""><dc:format>image/svg+xml</dc:format><dc:type
         rdf:resource="http://purl.org/dc/dcmitype/StillImage" /><dc:title></dc:title></cc:Work></rdf:RDF></metadata><sodipodi:namedview
   pagecolor="#ffffff"
   bordercolor="#666666"
   borderopacity="1"
   objecttolerance="10"
   gridtolerance="10"
   guidetolerance="10"
   inkscape:pageopacity="0"
   inkscape:pageshadow="2"
   inkscape:window-width="1366"
   inkscape:window-height="706"
   id="namedview3207"
   showgrid="false"
   inkscape:zoom="0.25"
   inkscape:cx="1105.0694"
   inkscape:cy="149.90287"
   inkscape:window-x="-8"
   inkscape:window-y="-8"
   inkscape:window-maximized="1"
   inkscape:current-layer="svg3098" />
 <defs
   id="defs3100">
  <style
   type="text/css"
   id="style3102">
   
    .fil0 {fill:black}
    .fil1 {fill:white}
   
  </style>
 
  
  
 
   
  
    
    
    
    
    
    
    
    
    
    
    
    
    
    
    
    
    
    
    
    
    
    
    
    
    
    
    
    
    
    
    
    
    
    
    
    
    
    
    
    
    
    
    
    
    
    
    
    
    
   </defs>
 <path
   style="fill:#000000;fill-opacity:1"
   d="m 836672.5,-1.6499522 c -21725.92,0 -43321.14,8877.1004522 -59498.19,23250.2509522 -19788.09,17445.279 -30421.42,43545.683 -30421.42,69750.718 0,48264.971 39471.87,88743.111 88070.81,88743.111 49936.54,0 90703.94,-41919.9 90703.94,-91656.397 0,-49066.836 -39386.5,-90087.6829522 -88855.14,-90087.6829522 z M 846532.86,3639.9626 c 5547.24,535.6859 10730.3,1667.4664 16079.08,3137.3748 l 2745.21,728.3234 c -1469.91,1335.9863 -2854.12,2697.7902 -4257.86,4033.7752 -3143.13,-1937.8257 -6284.57,-4073.3069 -9692.3,-5546.442 l -3305.45,-1456.6458 -1568.68,-896.3856 z m -20000.8,504.2227 504.2,0 c -4546.87,2071.7473 -8796.59,4193.9656 -12941.69,7003.0867 -1336,-1069.754 -2459.81,-2293.8791 -3529.57,-3697.6332 5281.01,-1939.4399 10352.03,-3305.4535 15967.06,-3305.4535 z m 5490.4,2128.9297 -2353.04,2969.3119 -3417.5,4145.8331 -2689.18,3697.619 c -2339.59,-1069.758 -4571.7,-2293.865 -6778.99,-3697.619 4947.01,-3075.347 9689.84,-5509.7007 15238.71,-7115.145 z m 12773.63,896.4028 c 4813.1,1671.5967 8740.56,3837.5592 12885.67,6778.9852 -1739.37,1205.293 -3506.7,2359.487 -5378.37,3361.475 L 850734.7,15068.991 C 848863.03,12393.79 846867.83,9776.9514 844796.09,7169.5178 z M 320405.12,8458.0841 c -14571.61,0 -26610.1,12216.6939 -26611.73,26723.7669 0,14573.233 12040.12,26891.851 26611.73,26891.851 14639.37,0 26611.72,-12384.774 26611.72,-26891.851 0,-14507.073 -12038.5,-26723.7669 -26611.72,-26723.7669 z m 485397.78,280.1212 c 1402.15,1739.3657 2868.47,3494.4107 4481.99,5098.2387 -2205.68,1471.523 -10084.45,6146.316 -10084.45,9019.976 0,735.762 418.89,1848.811 1288.56,1848.811 1068.16,0 9649.71,-7269.93 11989.3,-8739.84 2407.36,1873.288 4923.9,3334.322 7731.4,4537.999 -1537.69,2271.824 -3921.73,5586.054 -3921.73,8459.717 0,801.916 529.33,1736.768 1400.63,1736.768 1736.13,0 5194.87,-6922.043 6330.79,-8459.718 3541.64,1001.99 6911.47,1704.754 10588.65,1904.83 l 0,15014.624 c -2941.42,-200.076 -5854.44,-414.594 -8795.88,-616.28 1135.92,1537.674 2055.35,3068.642 2857.26,4874.158 l 5602.47,280.114 168.08,16919.453 -1680.76,0 c -1137.52,0 -2235.69,-56.018 -3305.45,-56.018 -1135.91,0 -2633.15,389.035 -2633.15,1792.789 0,2807.509 5421.65,2577.124 7227.18,2577.124 l 112.05,5714.526 c 64.55,1539.295 503.23,2969.297 2241,2969.297 1871.67,0 1904.82,-2091.639 1904.82,-3361.471 l -56.02,-5994.651 c 3811.12,-66.155 7628.06,-260.398 11373.01,-728.316 l 9692.27,-1176.509 c 4077.35,-466.308 8291.66,-2291.912 8291.66,-7171.168 0,-1203.679 -450.37,-2393.638 -784.36,-3529.55 l -1624.7,-5098.244 c -871.3,-2671.978 -1955.59,-5180.007 -3025.34,-7787.438 5147.1,-1873.285 9931.51,-4217.443 14678.45,-6891.029 4746.96,5014.791 8241.64,10490.245 11317,16639.335 -1603.83,734.15 -7899.47,2622.584 -7899.47,4762.099 0,800.294 1190.95,1232.538 1792.79,1232.538 2671.98,0 5369.94,-1327.028 7843.46,-2128.945 601.82,1335.989 2284.27,5210.303 4089.78,5210.303 934.22,0 1120.51,-1462.572 1120.51,-2128.945 0,-1737.751 -776.91,-3504.55 -1512.67,-5042.225 3611.04,-1937.828 7021.36,-4103.239 10364.56,-6442.829 l 3529.55,-2577.125 c 8756.53,13903.622 14622.45,29687.417 14622.45,46332.388 0,49133.048 -37340.32,90928.098 -87678.62,90928.098 -47997.1,0 -86165.95,-39445.14 -86165.95,-87174.436 0,-35431.05 23439.03,-69846.821 56528.88,-82748.4487 z m 30029.24,0 -280.13,11877.2277 c -2805.9,-534.072 -5506.01,-1203.227 -8179.59,-2072.908 666.38,-935.835 7791.72,-10136.7029 8459.72,-9804.3197 z m 4089.8,280.1213 c 3275.43,2941.4294 5717.82,6239.1864 8123.57,9916.3774 -2741.35,667.991 -5428.12,1234.69 -8235.62,1568.686 l 112.05,-11485.0634 z m 28908.74,112.0586 c 6618.62,2473.5108 13386.93,5673.6338 18600.19,10420.5828 -2741.37,2741.355 -5698.64,5099.403 -8907.92,7171.149 -4145.11,-4746.947 -8881.49,-9578.233 -14230.28,-13053.734 1537.67,-1471.521 3134.25,-2868.012 4538.01,-4537.9978 z M 663220.12,9970.75 c -15707.53,0 -33703.93,3168.854 -45267.94,14734.481 -13971.38,13973 -14958.59,34919.165 -14958.59,53503.574 l 0,121181.405 46164.32,0 0,-89415.38 24370.75,0 0,-34343.17 -24370.75,0 0,-7339.225 c 0,-14839.457 1777.56,-25323.148 18824.3,-25323.148 l 7115.13,0 0,-32998.537 -11877.22,0 z m 198159.27,6442.843 c 5213.25,3209.273 9536.65,7554.456 13613.99,12101.329 -4345.17,2805.896 -8666.96,4949.444 -13613.99,6554.888 -934.21,-2407.358 -1921.96,-4797.42 -3193.4,-7003.088 l -2689.18,-4706.079 -1456.65,-2465.089 c 2607.44,-1203.679 5067.41,-2610.289 7339.23,-4481.961 z m 29412.96,5770.526 c 5949.01,4211.265 10981.56,10074.052 15126.67,16023.068 -3941.81,3477.113 -8394.83,6356.527 -12941.72,8963.96 -3207.65,-6215.246 -7274.33,-12030.617 -11821.2,-17311.638 l 3585.6,-2689.189 c 2139.5,-1603.83 4178.98,-3180.682 6050.65,-4986.201 z m -40281.75,448.202 c 2941.44,4212.877 5165.58,8710.715 7171.16,13389.896 -6016.78,1939.444 -12035.44,2667.867 -18320.05,3137.394 l 280.11,-14902.565 c 3743.34,-135.534 7259.36,-755.043 10868.78,-1624.725 z m -102581.17,1344.603 c -2607.43,0 -9051.01,7764.569 -10588.67,9636.241 -4879.26,5747.327 -9356.12,13422.801 -9356.12,21177.33 0,869.681 208.68,2353.03 1344.6,2353.03 735.75,0 1324.85,-698.476 1792.77,-1232.539 l 1792.79,-1848.819 c 5613.4,-5815.094 10492.23,-14004.912 13165.82,-21625.525 l 2016.88,-5602.465 c 201.7,-601.84 337.76,-1190.949 336.14,-1792.787 0,-333.997 -34.69,-1064.466 -504.21,-1064.466 z m 178662.7,392.163 c -1937.84,-200.075 1949.12,9614.378 2016.88,9748.301 1605.45,3943.419 11278.25,23474.34 16359.19,23474.34 1271.46,0 1008.45,-3052.054 1008.45,-3921.735 0,-8890.442 -6948.94,-18463.842 -13165.79,-24146.626 L 928160.8,25265.49 c -400.13,-400.151 -965.22,-894.789 -1568.67,-896.403 z m -128744.72,1568.688 c -12433.72,0 -24202.66,10180.543 -24202.66,23082.178 0,5682.783 2297.01,11170.516 2297.01,16919.453 0,11297.798 -21009.25,11362.869 -21009.25,23530.357 0,46260.997 34038.98,83588.857 81235.77,83588.857 19320.18,0 36681.38,-7821.05 51654.76,-19720.69 l 0,-224.09 c 0,-669.63 168.07,-1350.51 168.07,-2016.89 0,-132.31 -9356.12,-5467.3 -9356.12,-13221.84 0,-2339.59 184.21,-5658.48 3193.41,-5658.48 1202.07,0 2381.89,112.04 3585.56,112.04 18450.51,0 32046.12,-21317.92 32046.12,-38096.801 0,-21525.854 -16104.62,-38657.027 -38096.76,-38657.027 -3141.52,0 -7128.58,461.643 -9468.19,2801.233 l -2577.13,2745.202 -2240.98,1400.616 -5938.62,2633.167 c -5681.16,2473.511 -5384.98,7288.047 -10196.48,8291.647 l -3977.75,784.348 -3249.44,448.203 c -4077.34,537.294 -1496.26,6505.296 -4369.92,7507.288 l -1232.54,448.203 c -2407.36,869.681 -539.01,5012.921 -2409.07,5882.602 l -1344.59,616.269 c -1337.59,669.605 -1556.95,1621.58 -1624.72,3025.333 -135.53,3409.349 -3921.73,5466.572 -3921.73,9076.017 0,8756.54 13958.75,9355.56 15294.73,21121.31 l 616.28,4874.15 728.34,4481.99 952.4,3697.62 c 200.09,869.67 280.14,1809.36 280.14,2745.19 0,2205.66 -1433.79,3926.57 -3305.47,4930.19 -2139.5,1135.9 -14865.54,2551.13 -22353.84,5826.55 l -10364.56,4538 c -3407.74,1471.53 -7191.6,2016.89 -10868.79,2016.89 -5748.94,0 -15126.66,-2731.68 -15126.66,-10084.42 0,-1605.47 1234.24,-7675.4 3641.59,-7675.4 335.61,0 572.54,146.2 840.38,280.12 l 1568.7,1008.45 c 1937.82,1203.69 5235.48,1176.51 7507.31,1176.51 2941.42,0 5910.45,-482.87 8851.89,-952.41 2071.74,-335.6 9473,-2409.07 10476.61,-2409.07 2407.36,0 4451.67,2072.9 7059.11,2072.9 6283.01,0 10140.45,-7214.63 10140.45,-12829.65 0,-667.98 -598.69,-3887.55 -1400.61,-3753.63 l -3809.67,336.13 c -1337.6,132.32 -1431.64,-2184.95 -2969.32,-2184.95 -4012.79,0 -6780.69,4538.01 -9188.05,4538.01 -601.83,0 -1314.74,-416.2 -1848.8,-616.28 l -3921.73,-1456.63 c -4611.41,-1803.92 -11625.97,-1459.54 -12829.64,-5938.66 l -784.36,-2745.21 -1064.46,-3249.42 -168.08,-672.31 224.11,-9692.23 c 133.91,-3675.597 -1904.85,-7203.362 -1904.85,-10812.791 0,-2205.669 2364.34,-3585.59 4369.92,-3585.59 668,0 1246.98,34.156 1848.82,168.077 l 3697.61,1008.443 c 1337.62,333.998 2798.11,392.184 4201.86,392.184 2204.06,0 4400.96,-290.893 5938.62,-1960.866 866.46,-935.836 3620.28,-3017.898 4089.8,-3753.657 l 1008.45,-1792.789 1120.49,-1736.772 168.08,-1008.443 c 200.08,-1873.279 2745.22,-2239.998 2745.22,-3977.75 0,-1602.222 -280.13,-3212.676 -280.13,-4818.117 0,-5013.179 6610.91,-8931.775 6610.91,-17423.675 0,-14173.083 -17922.07,-25379.189 -30757.55,-25379.189 z m -47340.85,13670.039 c -200.09,0 -358.58,212.35 -560.25,280.115 l -2240.99,1456.633 c -8288.6,5481.097 -20228.13,19141.175 -20224.91,29637.058 0,601.838 450.9,1176.532 1120.48,1176.532 2873.68,0 10171.5,-9087.301 11709.18,-11092.893 2673.59,-3611.033 10868.79,-15713.803 10868.79,-20392.983 0,-403.373 -204.39,-996.696 -672.3,-1064.462 z m 108967.98,224.085 c 1537.68,3543.268 3052.06,7056.077 3921.74,10868.797 l 952.43,3809.674 c 67.75,400.152 224.1,820.651 224.1,1288.568 0,2407.356 -3472.56,2667.312 -5210.31,2801.233 -6750.93,267.842 -13305.9,1725.023 -20056.84,1792.789 l -56.02,-17255.596 c 6884.85,-535.684 13606.27,-1299.873 20224.9,-3305.465 z m 63924.16,784.358 c -333.97,0 -616.27,226.242 -616.27,560.24 0,467.918 202.23,988.728 336.16,1456.645 l 784.35,2689.174 c 1537.67,5279.408 15260.31,27226.377 21009.24,27227.997 1003.6,0 896.41,-2143.375 896.41,-2745.213 0,-5080.943 -3299.18,-10601.119 -6106.69,-14678.461 -2541.28,-3611.032 -11891.86,-14510.382 -16303.2,-14510.382 z m -200064.12,280.114 c -1941.04,-135.53 -3691.25,7256.049 -4089.8,8459.726 -1671.59,5214.865 -2577.12,10485.944 -2577.12,15967.04 0,2473.511 1028.89,21177.328 4706.07,21177.328 3209.29,0 4762.1,-23207.675 4762.1,-25547.265 0,-1739.361 -61.49,-19924.518 -2801.25,-20056.829 z m 227516.23,280.126 c -1803.9,0 -3417.52,21448.485 -3417.52,23586.377 0,2405.747 1482.37,22129.753 4089.8,22129.753 534.07,0 752.34,-494.62 952.43,-896.383 L 953596,83531.156 c 2207.3,-5079.333 3307.08,-10867.978 3305.46,-16415.229 0,-5481.095 -481.36,-11938.822 -2353.03,-17087.531 l -1960.87,-5378.368 c -200.07,-601.839 -867.08,-3473.531 -1736.75,-3473.531 z m -177878.35,560.238 c -9827.91,7418.925 -15647.47,27139.435 -16583.32,39105.225 1135.93,-735.76 2281.59,-1403.299 3417.52,-2072.904 1937.82,-10896.045 5602.72,-21587.512 11821.21,-30813.575 200.07,-2139.513 678.2,-4146.996 1344.59,-6218.746 z m -27508.12,19328.524 c -3477.12,0 -11924.3,9381.844 -14062.2,11989.276 -5281.02,6420.149 -9076,14033.246 -9076,22521.932 0,600.23 -29.29,1680.73 840.37,1680.73 868.08,0 1762.94,-1034.621 2297.02,-1568.694 l 2633.15,-2857.25 c 5013.19,-5482.712 18094.36,-24142.702 18095.98,-31093.706 0,-401.762 -260.4,-672.288 -728.32,-672.288 z m 182248.26,336.144 c -466.29,0 -672.3,550.662 -672.3,952.424 0,6082.934 11607.43,22916.947 15350.77,27396.05 l 4481.97,5322.368 c 601.84,667.996 1451.36,2072.904 2521.11,2072.904 735.78,0 728.32,-854.795 728.32,-1456.646 l 0,-2240.981 c 200.09,-10027.982 -7730.14,-21457.18 -15350.75,-27340.038 l -4481.98,-3473.531 c -669.6,-534.074 -1641.3,-1232.55 -2577.14,-1232.55 z m -216367.29,4257.878 c -2070.14,0 -2857.25,13524.976 -2857.25,15462.804 0,7552.844 1294.03,15448.744 4033.77,22465.935 737.38,2005.57 4907.85,11148.87 7115.14,11148.87 1873.27,0 1624.7,-3804.39 1624.7,-4874.11 0,-10028.008 -1818.5,-20459.079 -4425.94,-30085.282 -400.15,-1603.829 -3420.28,-14118.217 -5490.42,-14118.217 z m 250934.53,840.365 c -1736.14,0 -5088.67,12176.097 -5490.44,13445.931 -3209.27,10562.044 -5882.58,20994.303 -5882.58,32158.153 0,735.75 152.66,2801.22 1288.55,2801.22 2939.83,0 8340.26,-12168.6 9076.03,-14174.2 2073.34,-6216.876 3417.5,-13731.71 3417.5,-20280.952 0,-1003.601 21.86,-2011.613 -112.05,-3081.369 l -392.16,-5938.606 c -66.16,-868.071 -433.34,-4930.177 -1904.85,-4930.177 z m -430829.77,1848.819 c -17112.9,0 -35357.47,4997.407 -48125.19,16695.354 -13771.31,12635.404 -20505.04,33542.021 -20505.04,51990.941 0,12701.54 3731.53,25768.12 9748.29,36864.22 11096.12,20323.78 33150.57,30309.35 55744.56,30309.35 14639.39,0 29336.68,-2894.46 41570.31,-11316.99 11831.88,-8020.77 17516.18,-19718.62 21793.61,-32886.49 l -43195.03,0 c -4078.95,7820.7 -10114.21,11709.16 -19272.48,11709.16 -14839.46,0 -20617.09,-10630.86 -20617.09,-23866.49 l 84877.38,0 c 601.83,-4411.34 1176.53,-8810.51 1176.53,-13221.85 0,-39776.284 -21415.61,-66277.205 -63195.85,-66277.205 z M 422706.19,69356.92 c -38104.68,0 -67509.75,30703.24 -67509.75,68406.15 0,36365.3 29609.36,65100.66 65772.96,65100.66 12099.73,0 24453.38,-2218.85 35015.44,-8235.62 l 0,-38208.81 c -7752.92,3877.25 -15940.23,7059.09 -24762.91,7059.09 -15778.52,0 -27003.89,-11829.37 -27003.89,-27340.04 0,-16309.39 11981.48,-28180.4 28292.46,-28180.4 8490.29,0 16321.65,3744.18 23474.34,7955.44 l 0,-37984.698 C 445824.56,71979.68 434538.06,69356.92 422706.19,69356.92 z m -186730.25,224.084 c -17246.83,0 -30320.56,6880.906 -42018.52,19048.394 l 0,-14678.468 -45660.11,0 0,125439.28 45660.11,0 0,-63419.93 c 0,-14507.07 5606.95,-28684.64 22185.78,-28684.64 16714.36,0 21289.36,12096.12 21289.36,26667.76 l 0,65436.81 45772.19,0 0,-85829.84 c 0,-28208.999 -19886.27,-43979.366 -47228.81,-43979.366 z M -0.00307944,73950.93 l 0,76753.84 c 0,40108.65 33106.82107944,52439.1 68069.98007944,52439.1 15976.982,0 33231.243,-2306.52 46668.563,-11597.11 13235.63,-9226.06 20449.01,-24932.79 20449.01,-40841.99 l 0,-76753.84 -45267.948,0 0,66053.13 c 0,12701.55 -7876.083,24370.72 -21513.475,24370.72 -14973.38,0 -22017.699,-9056.9 -22017.699,-23362.28 l 0,-67061.57 -46388.43107944,0 z m 297266.94307944,0 0,125439.28 46388.42,0 0,-125439.28 -46388.42,0 z m 442763.02,7899.472 c -1939.45,0 -6291.37,6247.618 -7227.2,7451.296 -6082.93,8090.142 -9916.36,16877.792 -9916.36,27171.952 0,1337.62 -200.53,7787.46 2072.9,7787.46 4746.94,0 15574.87,-35621.33 15574.87,-41570.343 0,-401.762 -36.3,-840.365 -504.21,-840.365 z m 192948.97,224.108 c -2275.06,0 548.51,9660.272 616.26,9860.348 1000.38,4145.108 9936.8,32158.192 13614,32158.192 801.92,0 932.17,-1078.91 1064.48,-1680.74 l 504.22,-2969.33 c 269.47,-1471.53 390.55,-2998.73 392.16,-4538.03 0,-5748.88 -1638.16,-11266.46 -3977.75,-16415.214 C 943856.32,95414.385 936454.44,82074.51 932978.93,82074.51 z M 531506.1,98489.736 c 13637.41,0 19163.12,10232.294 19832.74,22465.904 l -42074.54,0 c 1870.06,-13169.44 7733.11,-22465.904 22241.8,-22465.904 z m 436264.15,56.029 c -4613.02,0 -25659.3,38827.015 -25659.3,45043.875 0,333.99 92.32,1064.45 560.23,1064.45 400.15,0 786.51,-248.12 1120.53,-448.21 l 3137.35,-1792.78 c 6884.87,-3943.41 13539.97,-13094.61 16415.24,-20449 2739.73,-6954.26 4930.18,-14753.49 4930.18,-22241.815 0,-332.387 -36.31,-1176.52 -504.23,-1176.52 z m -262363.57,168.078 c -935.83,0 -1232.53,1393.197 -1232.53,2128.947 0,12099.69 5587.95,28707.96 14678.47,36864.25 l 5042.23,4538.01 c 1135.92,1001.98 2552.11,1960.83 4089.79,1960.83 669.6,0 896.39,-754.48 896.39,-1288.55 0,-6952.62 -8558.07,-22935.7 -12101.34,-28684.66 l -5826.55,-9300.06 c -1002.01,-1603.82 -3206.87,-6218.767 -5546.46,-6218.767 z m 34567.24,3249.467 c -2273.44,0 -5897.02,9903.06 -6498.85,11372.96 -2139.52,5413.36 -3753.66,11428.81 -3753.66,17311.67 0,3277.03 1905.01,20392.97 5714.51,20392.97 1003.59,0 1424.64,-2009.45 1624.72,-2745.2 l 1960.86,-7563.34 c 2673.59,-10494.26 2857.25,-21942.95 2857.25,-32774.42 0,-1269.84 302.44,-5994.64 -1904.83,-5994.64 z m 192052.58,0 c -935.83,-66.16 -1164.77,2099.07 -1232.54,2633.14 l -224.1,4481.99 c -200.08,3341.54 -336.15,6741.21 -336.15,10084.42 0,2273.45 1769.51,32438.3 5714.52,32438.3 3209.28,0 5882.6,-18389.53 5882.6,-20729.11 0,-7552.85 -1768.94,-15511.18 -5378.38,-22129.75 l -2857.26,-5098.24 c -334,-537.32 -832.92,-1612.99 -1568.69,-1680.75 z m -22129.75,19720.67 -4874.13,4089.8 c -3475.51,8154.69 -8821.79,15496.7 -15238.71,21513.48 l 896.39,2633.15 c 9561.67,-6750.92 15139.11,-17538.86 19216.45,-28236.43 z m -164880.62,3361.48 c -2609.06,0 -3921.73,18311.11 -3921.73,20448.99 0,5748.96 854.36,11658.7 3529.57,16807.42 1269.84,2473.51 7357.51,13109.77 10700.72,13109.77 1001.97,0 1120.48,-1449.21 1120.48,-2184.96 0,-8624.22 -1299.85,-16742.69 -3305.45,-25099.06 -600.22,-2407.36 -5514.55,-23082.16 -8123.59,-23082.16 z m 181519.95,224.09 c -1937.81,0 -5268.46,11077.48 -5602.47,12213.4 -3609.43,10963.81 -7227.18,22768.96 -7227.18,34399.14 l 0,1008.44 c 0,534.09 -229.36,2812.98 840.39,2745.21 601.84,-67.76 1166.91,-606.67 1568.67,-1008.45 l 2633.16,-2521.1 c 7620.6,-7420.54 11206.56,-17626.9 11204.94,-28124.38 0,-2605.82 -158.48,-5247.77 -560.24,-7787.43 l -1120.5,-6722.96 c -132.31,-868.08 -466.94,-4201.87 -1736.77,-4201.87 z m -219056.46,7003.09 c -532.47,0 -672.31,596.55 -672.31,1064.48 0,5348.77 8099.19,17649.56 11373,21457.45 5884.48,6750.92 17881.92,17087.52 27508.13,17087.52 734.15,0 1232.54,-260.94 1232.54,-1064.47 0,-6683.17 -33088.98,-38544.98 -39441.36,-38544.98 z m 256873.12,336.15 c -334.01,0 -584.28,212.37 -784.33,280.14 l -1848.83,840.37 c -7288.22,3543.26 -16852.48,12245.08 -22465.88,17927.88 -2876.9,2876.9 -15742.95,15439.51 -15742.95,19384.55 0,735.76 496.79,1120.49 1232.55,1120.49 3809.48,0 12869.8,-5065.27 16079.08,-7003.09 9158.29,-5679.56 17504.45,-16191.04 21849.63,-25883.4 l 2184.95,-4818.12 c 135.54,-333.99 224.1,-674.45 224.1,-1008.44 0,-401.76 -326.56,-840.38 -728.32,-840.38 z m -51038.47,15294.74 c -3744.97,0 -31429.86,33498.19 -31429.86,38713.05 0,1137.54 1013.28,1512.67 2016.9,1512.67 19120.1,0 30253.33,-21562.78 30253.33,-38544.98 0,-534.08 -38.46,-1680.74 -840.37,-1680.74 z m -155524.51,280.13 c -935.83,0 -896.39,1462.57 -896.39,2128.95 0,8222.44 2129.65,16265.61 6274.75,23418.29 4343.58,7552.84 12479,14230.27 21569.52,14230.27 1001.99,0 3641.6,69.3 3641.6,-1400.61 0,-6617.01 -19669.68,-28129.4 -24482.79,-32942.5 l -4089.79,-4089.82 c -469.54,-469.54 -1216.6,-1344.58 -2016.9,-1344.58 z m -34119.02,19440.56 c -667.99,0 -1602.84,260.94 -1736.76,1064.47 -267.85,2339.58 11013.45,11457.9 12549.52,12661.58 7485.08,5750.56 16323.35,10028.4 25883.39,10028.4 1673.22,0 13333.88,506.21 13333.88,-2969.29 0,-4745.35 -43545.33,-20785.16 -50030.03,-20785.16 z m 223762.55,168.08 c -8490.29,0 -34586.23,10689.14 -42074.53,14566.42 l -6050.66,3137.36 c -1135.93,534.07 -3135.77,1496.18 -3137.38,2969.32 0,3209.28 9691.27,3137.36 11429.03,3137.36 8758.13,0 17140.15,-2918.28 24426.75,-7731.38 2271.82,-1469.9 16751.39,-12353.31 16751.39,-15294.74 0,-601.85 -876.68,-784.34 -1344.6,-784.34 z M 798967.9,188577.44 c -7873.2,216.48 -15868.41,1221.41 -23530.36,2801.23 l -10812.76,2128.95 c -1471.53,266.23 -10756.74,1737.92 -10756.74,3809.68 l 0,112.04 0,224.1 2577.13,1736.77 7059.12,2240.98 c 6550.86,2207.28 14514.95,2913.29 21401.44,2913.29 9692.35,0 17637.88,-2307.5 23922.5,-9860.34 l 1568.71,-1848.83 c 6150.71,133.93 11976.72,2086.38 17591.74,4425.97 -10027.97,4613.02 -20253.5,10660.01 -27340.03,19216.46 l 4089.8,3977.75 c 3275.41,-3277.04 6639.41,-6480.85 10308.53,-9356.12 3076.97,-2341.2 16401.52,-11360.73 19944.78,-11092.89 3943.43,267.85 20209.05,11681.02 23418.33,14622.45 l 3921.72,3529.55 2184.96,1792.78 3921.74,-3809.67 -1400.63,-1456.64 c -7220.48,-7418.92 -16412.98,-13134.51 -25771.34,-17479.69 5147.1,-2139.53 11528.53,-4257.88 17143.55,-4257.88 669.6,0 1359.01,112.03 1960.85,112.03 3543.26,8756.54 15085.98,11597.12 23642.41,11597.12 3611.05,0 30421.4,-3082.09 30421.4,-7227.19 0,-2339.58 -8758.56,-3867.85 -10028.41,-4201.86 -11831.86,-3073.72 -23948.17,-4650.04 -36247.96,-4650.04 -11431.73,0 -22730.52,2339.33 -33558.78,5882.6 -10360.34,-3675.58 -21238.64,-5882.6 -32270.21,-5882.6 -1119.59,0 -2236.74,-30.91 -3361.49,0 z"
   id="path3109"
   inkscape:connector-curvature="0" />
</svg>